<?xml version="1.0" encoding="UTF-8"?>
<svg width="800px" height="600px" viewBox="0 0 800 600" version="1.1" xmlns="http://www.w3.org/2000/svg" xmlns:xlink="http://www.w3.org/1999/xlink">
    <title>Project Placeholder</title>
    <defs>
        <linearGradient x1="0%" y1="0%" x2="100%" y2="100%" id="linearGradient">
            <stop stop-color="#151538" offset="0%"></stop>
            <stop stop-color="#1F1155" offset="100%"></stop>
        </linearGradient>
    </defs>
    <g stroke="none" stroke-width="1" fill="none" fill-rule="evenodd">
        <rect fill="url(#linearGradient)" x="0" y="0" width="800" height="600"></rect>
        <g transform="translate(350,250)" fill="#FFFFFF" fill-opacity="0.1">
            <path d="M50,0 C77.6142375,0 100,22.3857625 100,50 C100,77.6142375 77.6142375,100 50,100 C22.3857625,100 0,77.6142375 0,50 C0,22.3857625 22.3857625,0 50,0 Z M50,10 C27.90861,10 10,27.90861 10,50 C10,72.09139 27.90861,90 50,90 C72.09139,90 90,72.09139 90,50 C90,27.90861 72.09139,10 50,10 Z"></path>
            <path d="M45,40 L60,50 L45,60 L45,40 Z"></path>
        </g>
        <text x="400" y="400" font-family="Arial" font-size="24" fill="#FFFFFF" fill-opacity="0.4" text-anchor="middle">
            Preview Coming Soon
        </text>
    </g>
</svg>